<?xml version="1.0" standalone="no"?>
<!DOCTYPE svg PUBLIC "-//W3C//DTD SVG 20010904//EN"
 "http://www.w3.org/TR/2001/REC-SVG-20010904/DTD/svg10.dtd">
<svg version="1.0" xmlns="http://www.w3.org/2000/svg"
 width="268.000000pt" height="268.000000pt" viewBox="0 0 268.000000 268.000000"
 preserveAspectRatio="xMidYMid meet">
<metadata>
Created by potrace 1.14, written by Peter Selinger 2001-2017
</metadata>
<g transform="translate(0.000000,268.000000) scale(0.100000,-0.100000)"
fill="#000000" stroke="none">
<path d="M1416 2388 c-3 -35 -9 -111 -12 -170 -4 -60 -11 -108 -16 -108 -19 0
-37 -28 -31 -49 4 -15 -1 -29 -16 -42 -13 -12 -21 -32 -21 -52 0 -50 -12 -59
-75 -63 -32 -2 -83 -8 -113 -15 -46 -9 -57 -9 -66 3 -25 34 -64 48 -132 50
-76 1 -121 -12 -131 -39 -9 -23 -23 -33 -51 -33 -12 0 -26 -8 -29 -17 -4 -10
-13 -24 -20 -31 -7 -7 -13 -24 -13 -37 0 -38 31 -95 52 -95 10 0 18 -4 18 -10
0 -5 9 -10 20 -10 11 0 20 -4 20 -10 0 -5 13 -10 28 -10 16 0 34 -8 42 -20 8
-11 22 -20 32 -20 10 0 18 -4 18 -10 0 -5 25 -10 55 -10 52 0 55 -2 55 -24 0
-50 8 -56 76 -56 l64 0 0 -146 c0 -146 0 -146 -22 -141 -39 11 -58 -18 -58
-90 l0 -63 -45 0 -45 0 0 59 c0 80 -29 111 -74 78 -13 -9 -17 -28 -18 -75 -1
-47 -4 -62 -15 -62 -12 0 -15 -21 -14 -117 1 -65 -1 -201 -5 -302 l-7 -183
-91 2 c-50 2 -112 2 -138 1 l-48 -1 0 -80 0 -80 54 0 c34 0 56 -5 59 -12 4
-10 8 -10 15 1 7 10 22 12 50 8 29 -3 42 -1 46 9 3 8 17 14 30 14 l26 0 -3
-165 -2 -166 465 5 c256 3 512 7 570 9 58 3 124 5 148 6 l42 1 0 596 0 595
-42 -3 -43 -3 -5 -60 -5 -60 -42 -3 -43 -3 0 55 c0 36 -5 60 -16 70 -35 36
-64 7 -64 -66 0 -60 -9 -70 -61 -66 l-44 3 -3 60 c-2 33 -7 64 -13 70 -5 5 -9
76 -9 157 l0 148 80 0 c77 0 80 1 80 24 0 13 3 44 6 70 5 31 3 46 -5 46 -6 0
-11 -9 -11 -20 0 -28 -35 -26 -66 5 -14 14 -29 25 -34 25 -6 0 -10 19 -10 43
0 23 -5 49 -10 57 -6 10 -10 11 -10 3 0 -7 -9 -13 -20 -13 -11 0 -20 5 -20 10
0 6 -6 10 -14 10 -17 0 -26 22 -26 66 0 31 -3 34 -29 34 -21 0 -32 6 -36 20
-3 11 -13 20 -21 20 -9 0 -14 11 -14 29 0 16 -6 36 -14 44 -8 8 -17 35 -21 60
-6 36 -12 47 -25 47 -15 0 -18 13 -24 93 -13 206 -19 267 -26 267 -4 0 -10
-28 -14 -62z m-375 -515 l41 -37 46 13 c96 27 92 28 90 -15 -4 -50 -43 -92
-70 -75 -24 15 -28 14 -28 -8 0 -24 -17 -22 -57 7 -17 12 -34 22 -37 22 -14 0
-4 -48 14 -68 11 -12 20 -25 20 -29 0 -11 -95 -53 -119 -53 -11 0 -33 16 -49
35 -21 27 -35 34 -53 31 -29 -4 -66 13 -97 47 -19 20 -22 29 -13 45 16 30 54
50 102 54 40 3 44 5 41 27 -5 31 12 41 75 41 47 0 58 -4 94 -37z m564 -375 c4
-3 7 -100 8 -215 l2 -209 -35 6 -35 5 -1 60 c-1 55 -2 59 -28 68 -42 14 -56
-5 -56 -74 0 -40 -4 -59 -12 -60 -7 0 -28 -2 -45 -3 -31 -2 -33 -1 -34 33 -1
34 -4 65 -7 104 -1 12 -11 17 -31 17 -17 0 -32 -4 -35 -9 -3 -5 -6 -37 -7 -72
-1 -60 -10 -78 -34 -79 -9 0 -10 399 -1 425 4 11 340 14 351 3z"/>
<path d="M1900 2353 c-8 -3 -22 -12 -32 -20 -14 -13 -22 -12 -66 3 -44 16 -55
16 -92 4 -34 -11 -46 -23 -68 -63 -15 -27 -33 -59 -39 -71 -17 -29 -16 -52 4
-84 25 -39 34 -43 73 -38 29 5 42 0 70 -25 32 -27 39 -29 85 -24 35 4 62 1 88
-10 46 -19 167 -11 167 11 0 13 -17 13 -115 -1 -11 -2 -40 8 -64 22 -42 25
-45 25 -73 9 -15 -10 -36 -15 -46 -12 -22 7 -52 57 -52 85 0 27 -17 27 -25 0
-4 -11 -18 -25 -32 -30 -21 -8 -30 -6 -50 12 -30 29 -30 70 1 101 14 13 28 36
32 52 4 16 17 31 30 36 13 5 24 14 24 19 0 14 50 3 87 -20 l33 -21 32 23 c18
13 35 26 38 30 3 4 22 7 44 7 37 0 68 -19 78 -48 3 -9 13 -11 31 -6 28 7 37
26 12 26 -8 0 -29 9 -47 20 -32 19 -94 25 -128 13z"/>
</g>
</svg>
